<?xml version="1.0" encoding="UTF-8"?>
<!-- Generator: Adobe Illustrator 17.0.0, SVG Export Plug-In . SVG Version: 6.00 Build 0)  -->
<!DOCTYPE svg PUBLIC "-//W3C//DTD SVG 1.1//EN" "http://www.w3.org/Graphics/SVG/1.1/DTD/svg11.dtd">
<svg version="1.1" id="Layer_1" xmlns="http://www.w3.org/2000/svg" xmlns:xlink="http://www.w3.org/1999/xlink" x="0px" y="0px" width="600px" height="400px" viewBox="0.5 0.5 600 400" enable-background="new 0.5 0.5 600 400" xml:space="preserve">
<g>
	<path fill="#454545" d="M43.261,165.3V76.771h12.478l28.372,44.79c6.567,10.376,11.69,19.702,15.893,28.765l0.263-0.132   c-1.051-11.821-1.314-22.592-1.314-36.384V76.77h10.77v88.53H98.165l-28.108-44.921c-6.173-9.851-12.084-19.965-16.55-29.553   l-0.394,0.131c0.657,11.165,0.92,21.804,0.92,36.515V165.3H43.261z"/>
	<path fill="#454545" d="M186.822,132.988c0,23.511-16.287,33.757-31.655,33.757c-17.207,0-30.473-12.61-30.473-32.707   c0-21.278,13.923-33.756,31.524-33.756C174.475,100.282,186.822,113.549,186.822,132.988z M136.384,133.645   c0,13.923,8.012,24.431,19.308,24.431c11.033,0,19.308-10.377,19.308-24.694c0-10.77-5.385-24.43-19.045-24.43   S136.384,121.561,136.384,133.645z"/>
	<path fill="#454545" d="M242.116,83.864c0.131,3.94-2.758,7.093-7.355,7.093c-4.072,0-6.962-3.153-6.962-7.093   c0-4.072,3.021-7.225,7.224-7.225C239.358,76.64,242.116,79.792,242.116,83.864z M229.244,165.3v-63.573h11.558V165.3H229.244z"/>
	<path fill="#454545" d="M259.978,118.934c0-6.568-0.132-11.953-0.526-17.207h10.114l0.526,10.245h0.394   c3.546-6.042,9.457-11.69,19.965-11.69c8.67,0,15.237,5.254,17.996,12.741h0.262c1.97-3.546,4.466-6.305,7.093-8.274   c3.809-2.89,8.012-4.466,14.055-4.466c8.406,0,20.884,5.517,20.884,27.584V165.3h-11.296v-35.989   c0-12.216-4.466-19.571-13.791-19.571c-6.568,0-11.69,4.86-13.661,10.508c-0.525,1.576-0.919,3.678-0.919,5.779V165.3h-11.296   v-38.091c0-10.114-4.467-17.469-13.267-17.469c-7.225,0-12.478,5.779-14.317,11.558c-0.657,1.708-0.919,3.678-0.919,5.648V165.3   h-11.296v-46.366C259.979,118.934,259.978,118.934,259.978,118.934z"/>
	<path fill="#454545" d="M404.722,165.3l-0.919-8.012h-0.393c-3.548,4.991-10.377,9.457-19.44,9.457   c-12.873,0-19.44-9.064-19.44-18.258c0-15.368,13.66-23.774,38.223-23.643v-1.314c0-5.254-1.445-14.711-14.449-14.711   c-5.91,0-12.083,1.839-16.55,4.729l-2.626-7.618c5.253-3.415,12.872-5.648,20.884-5.648c19.44,0,24.168,13.266,24.168,26.007   v23.774c0,5.517,0.262,10.902,1.051,15.237L404.722,165.3L404.722,165.3z M403.015,132.857   c-12.609-0.263-26.927,1.97-26.927,14.317c0,7.487,4.992,11.033,10.902,11.033c8.276,0,13.529-5.254,15.368-10.639   c0.394-1.182,0.657-2.496,0.657-3.678L403.015,132.857L403.015,132.857z"/>
	<path fill="#454545" d="M487.602,101.727c-0.262,4.597-0.525,9.72-0.525,17.469v36.909c0,14.579-2.891,23.512-9.063,29.028   c-6.173,5.779-15.106,7.618-23.118,7.618c-7.618,0-16.024-1.839-21.148-5.254l2.891-8.799c4.203,2.626,10.77,4.991,18.651,4.991   c11.821,0,20.49-6.173,20.49-22.197v-7.093h-0.262c-3.546,5.911-10.377,10.64-20.227,10.64c-15.762,0-27.057-13.398-27.057-30.999   c0-21.541,14.054-33.756,28.633-33.756c11.033,0,17.075,5.779,19.834,11.033h0.262l0.525-9.589L487.602,101.727L487.602,101.727z    M475.649,126.815c0-1.97-0.132-3.678-0.657-5.254c-2.102-6.699-7.75-12.216-16.156-12.216c-11.033,0-18.915,9.326-18.915,24.037   c0,12.478,6.305,22.855,18.783,22.855c7.093,0,13.529-4.466,16.025-11.821c0.657-1.97,0.919-4.203,0.919-6.173v-11.428   C475.648,126.815,475.649,126.815,475.649,126.815z"/>
	<path fill="#454545" d="M512.686,135.615c0.264,15.63,10.246,22.066,21.804,22.066c8.274,0,13.266-1.445,17.601-3.284l1.969,8.275   c-4.071,1.839-11.032,3.941-21.146,3.941c-19.572,0-31.261-12.872-31.261-32.049s11.296-34.282,29.815-34.282   c20.753,0,26.27,18.257,26.27,29.948c0,2.364-0.263,4.203-0.394,5.385L512.686,135.615L512.686,135.615z M546.575,127.34   c0.131-7.356-3.021-18.783-16.025-18.783c-11.69,0-16.813,10.77-17.732,18.783H546.575z"/>
	<path fill="#454545" d="M100.266,322.915l-0.919-8.012h-0.394c-3.546,4.991-10.377,9.457-19.44,9.457   c-12.872,0-19.439-9.063-19.439-18.258c0-15.367,13.66-23.773,38.222-23.643v-1.314c0-5.254-1.445-14.71-14.449-14.71   c-5.91,0-12.084,1.839-16.55,4.728l-2.627-7.618c5.254-3.416,12.873-5.649,20.884-5.649c19.44,0,24.168,13.266,24.168,26.008   v23.773c0,5.517,0.263,10.902,1.051,15.237L100.266,322.915L100.266,322.915z M98.559,290.472   c-12.609-0.262-26.927,1.97-26.927,14.317c0,7.487,4.991,11.033,10.902,11.033c8.274,0,13.529-5.254,15.368-10.639   c0.394-1.183,0.657-2.495,0.657-3.678C98.559,301.505,98.559,290.472,98.559,290.472z"/>
	<path fill="#454545" d="M131.789,259.343l12.478,35.726c2.102,5.779,3.809,11.033,5.122,16.288h0.394   c1.445-5.254,3.283-10.508,5.385-16.288l12.347-35.726h12.084l-24.956,63.572H143.61l-24.168-63.572H131.789z"/>
	<path fill="#454545" d="M225.175,322.915l-0.919-8.012h-0.394c-3.546,4.991-10.377,9.457-19.44,9.457   c-12.872,0-19.439-9.063-19.439-18.258c0-15.367,13.66-23.773,38.222-23.643v-1.314c0-5.254-1.445-14.71-14.449-14.71   c-5.91,0-12.084,1.839-16.55,4.728l-2.627-7.618c5.254-3.416,12.873-5.649,20.884-5.649c19.44,0,24.168,13.266,24.168,26.008   v23.773c0,5.517,0.263,10.902,1.051,15.237L225.175,322.915L225.175,322.915z M223.468,290.472   c-12.609-0.262-26.927,1.97-26.927,14.317c0,7.487,4.991,11.033,10.902,11.033c8.274,0,13.529-5.254,15.368-10.639   c0.394-1.183,0.657-2.495,0.657-3.678L223.468,290.472L223.468,290.472z"/>
	<path fill="#454545" d="M266.154,241.479c0.131,3.941-2.758,7.093-7.355,7.093c-4.072,0-6.961-3.152-6.961-7.093   c0-4.072,3.021-7.225,7.224-7.225C263.396,234.255,266.154,237.407,266.154,241.479z M253.282,322.915v-63.572h11.558v63.572   H253.282z"/>
	<path fill="#454545" d="M284.016,229.657h11.558v93.258h-11.558V229.657z"/>
	<path fill="#454545" d="M350.214,322.915l-0.919-8.012h-0.393c-3.546,4.991-10.377,9.457-19.44,9.457   c-12.873,0-19.44-9.063-19.44-18.258c0-15.367,13.661-23.773,38.223-23.643v-1.314c0-5.254-1.445-14.71-14.449-14.71   c-5.91,0-12.083,1.839-16.55,4.728l-2.626-7.618c5.253-3.416,12.872-5.649,20.884-5.649c19.44,0,24.168,13.266,24.168,26.008   v23.773c0,5.517,0.262,10.902,1.051,15.237L350.214,322.915L350.214,322.915z M348.507,290.472   c-12.609-0.262-26.927,1.97-26.927,14.317c0,7.487,4.992,11.033,10.902,11.033c8.276,0,13.529-5.254,15.368-10.639   c0.394-1.183,0.657-2.495,0.657-3.678L348.507,290.472L348.507,290.472z"/>
	<path fill="#454545" d="M377.796,322.915c0.262-4.335,0.525-10.771,0.525-16.418v-76.84h11.428v39.93h0.262   c4.073-7.093,11.428-11.69,21.673-11.69c15.762,0,26.927,13.134,26.795,32.443c0,22.722-14.316,34.019-28.503,34.019   c-9.194,0-16.549-3.548-21.278-11.954h-0.394l-0.525,10.508h-9.983V322.915z M389.749,297.434c0,1.444,0.262,2.89,0.525,4.203   c2.233,8.012,8.932,13.529,17.339,13.529c12.083,0,19.308-9.852,19.308-24.43c0-12.741-6.568-23.643-18.914-23.643   c-7.881,0-15.237,5.385-17.601,14.185c-0.262,1.314-0.657,2.89-0.657,4.728L389.749,297.434L389.749,297.434z"/>
	<path fill="#454545" d="M453.055,229.657h11.56v93.258h-11.56V229.657z"/>
	<path fill="#454545" d="M490.488,293.23c0.264,15.63,10.246,22.067,21.804,22.067c8.274,0,13.266-1.445,17.601-3.284l1.969,8.274   c-4.071,1.839-11.032,3.941-21.146,3.941c-19.572,0-31.261-12.872-31.261-32.049s11.296-34.282,29.815-34.282   c20.753,0,26.27,18.258,26.27,29.947c0,2.365-0.262,4.203-0.394,5.386L490.488,293.23L490.488,293.23z M524.377,284.955   c0.131-7.355-3.021-18.782-16.025-18.782c-11.69,0-16.813,10.77-17.732,18.782H524.377z"/>
</g>
</svg>